<svg width="465" height="106" viewBox="0 0 465 106" fill="" xmlns="http://www.w3.org/2000/svg">
<g id="Vector">
<path d="M45.4986 99.0395C45.4986 96.9879 46.4553 96.2889 47.6246 97.4863C48.794 98.6836 49.7508 100.362 49.7508 101.216C49.7508 102.071 48.7941 102.769 47.6246 102.769C46.4553 102.769 45.4986 101.091 45.4986 99.0395ZM57.1591 91.9511C55.1372 76.7014 56.8722 76.0445 61.0292 90.4861C63.9406 100.601 64.0376 102.769 61.5791 102.769C59.9369 102.769 57.9479 97.9014 57.1591 91.9511ZM73.0745 95.9213C75.5755 88.1795 79.2722 83.58 80.8681 86.2238C82.6041 89.0997 76.6116 102.769 73.6149 102.769C71.5474 102.769 71.4128 101.065 73.0745 95.9213ZM231.631 97.0463C229.696 93.5036 228.112 89.4855 228.112 88.1167C228.112 83.859 236.048 92.4283 237.363 98.106C239.067 105.463 235.911 104.88 231.631 97.0463ZM239.584 97.3237C238.951 93.9335 237.067 85.955 235.399 79.5934C231.493 64.7015 227.325 41.5867 231.631 47.5027C235.123 52.3003 245.122 92.8805 245.122 99.8531C245.122 105.895 240.818 103.928 239.584 97.3237ZM247.197 90.2793C247.169 83.0149 246.265 70.7756 245.188 63.0816C244.111 55.3869 243.639 48.4147 244.138 47.588C245.95 44.5863 253.54 77.3897 253.812 89.3991C254.088 101.548 254.118 101.503 255.921 86.3005C257.919 69.4526 263.026 54.1765 266.659 54.1765C267.927 54.1765 268.43 56.1576 267.777 58.5791C267.124 61.0006 264.391 72.0688 261.703 83.1748C257.796 99.3175 255.856 103.379 252.031 103.426C247.923 103.478 247.24 101.622 247.197 90.2793ZM261.067 99.9652C261.79 98.028 262.803 96.4431 263.319 96.4431C263.834 96.4431 264.256 98.0281 264.256 99.9652C264.256 101.902 263.243 103.487 262.005 103.487C260.766 103.487 260.344 101.902 261.067 99.9652ZM281.584 92.9208C280.361 87.1092 279.724 82.3543 280.169 82.3543C280.613 82.3543 283.02 87.1093 285.518 92.9208C289.057 101.155 289.37 103.487 286.934 103.487C285.214 103.487 282.807 98.7323 281.584 92.9208ZM294.023 96.8832C294.023 93.2509 293.534 84.9298 292.937 78.3917L291.85 66.5043L296.07 80.5932C301.157 97.5803 301.452 103.487 297.212 103.487C295.458 103.487 294.023 100.516 294.023 96.8832ZM305.825 95.5624C307.489 86.5126 312.928 75.3107 315.657 75.3107C316.669 75.3107 315.544 81.6506 313.158 89.3995C308.487 104.566 303.379 108.86 305.825 95.5624ZM337.376 90.0608C333.141 73.2688 334.916 71.1519 340.556 86.2694C345.624 99.8532 346.023 102.769 342.816 102.769C341.587 102.769 339.139 97.0506 337.376 90.0608ZM347.768 82.5167C346.533 71.3778 345.877 61.6311 346.312 60.8583C347.521 58.7059 355.582 89.6112 355.635 96.6048C355.661 99.995 354.406 102.769 352.848 102.769C351.076 102.769 349.173 95.1794 347.768 82.5167ZM358.997 94.8444C361.771 79.9454 366.419 67.5477 369.231 67.5477C371.232 67.5477 370.527 72.6113 366.779 85.1587C361.455 102.981 356.283 109.417 358.997 94.8444ZM383.321 99.0392C383.321 96.9876 384.277 96.2886 385.447 97.486C386.616 98.6832 387.573 100.362 387.573 101.216C387.573 102.07 386.616 102.769 385.447 102.769C384.277 102.769 383.321 101.091 383.321 99.0392ZM394.981 91.9508C392.959 76.7011 394.694 76.0442 398.851 90.4858C401.763 100.6 401.86 102.769 399.401 102.769C397.759 102.769 395.77 97.9011 394.981 91.9508ZM410.897 95.921C413.398 88.1792 417.094 83.5797 418.69 86.2235C420.426 89.0993 414.434 102.769 411.437 102.769C409.37 102.769 409.235 101.064 410.897 95.921ZM22.9216 18.0209C22.547 18.2802 21.8304 20.1667 20.6998 23.2927C18.948 28.1357 16.3959 38.4383 15.0308 46.1864L12.551 60.2769L10.5536 47.9485C8.5601 35.6386 3.92857 18.0209 0.203211 23.2921C-1.31054 23.2921 5.95441 54.0056 11.3233 70.3036C12.5022 73.8821 12.9984 77.5854 12.4275 78.5313C11.8564 79.477 10.3215 76.9465 9.0162 72.9062C4.98248 60.4199 2.29406 64.8095 5.70144 78.3194C8.5837 89.7477 8.58198 90.6125 5.679 86.6213C0.554027 79.5752 -0.365783 85.1738 3.92854 97.2729C6.94812 105.781 8.02914 106.94 8.60332 102.288C9.21287 97.3496 9.6961 97.14 11.2291 101.151C12.5357 104.569 13.1654 102.313 13.3005 93.7374L13.4957 81.409L15.9914 92.6034C20.0163 110.656 20.6122 108.833 20.6122 78.4756C20.6122 62.6527 21.3489 41.785 22.2482 32.0998C23.2158 21.6799 23.5458 17.5886 22.9216 18.0209ZM34.7533 30.695C33.8265 30.5547 31.5348 34.9278 28.613 43.5476C25.0986 53.9155 24.1116 63.036 24.0236 85.964C23.9541 104.072 23.7193 104.633 25.0035 103.318C26.1428 102.152 28.0542 106.194 28.0542 100.4C28.0542 89.395 32.6383 71.6855 38.2094 61.159C42.9182 52.2619 38.8268 53.5696 32.711 62.9176L27.5268 70.8441L29.109 62.0364C29.9789 57.1935 31.9624 48.0813 33.5167 41.7848C35.3262 34.455 35.5711 30.8187 34.7533 30.695ZM97.1338 89.0325C90.3129 71.7738 91.1965 67.1857 98.7431 80.6756L104.09 90.2335L102.284 79.7971C101.29 74.0572 99.4151 66.0741 98.1175 62.0571C94.2397 50.054 95.5376 44.8235 100.044 54.2903C105.279 65.2847 109.162 87.6327 107.418 96.7296C105.498 106.756 103.567 105.312 97.1338 89.0325ZM110.629 83.3486C110.622 72.2097 109.596 57.0036 108.348 49.557C107.1 42.1106 106.61 35.1386 107.259 34.0634C109.28 30.7155 116.912 62.447 117.206 75.4234C117.481 87.5727 117.512 87.5277 119.315 72.3248C121.263 55.895 126.398 40.2008 129.825 40.2008C132.457 40.2008 132.429 41.4758 129.576 51.8513C127.696 58.6852 128.105 63.0906 131.702 74.7718C134.151 82.7244 136.155 92.4532 136.155 96.3902C136.155 102.508 134.895 103.468 127.495 102.987C120.224 102.515 118.999 101.389 119.855 95.9684C120.415 92.4172 120.007 89.5115 118.947 89.5115C117.887 89.5115 117.02 92.6814 117.02 96.5558C117.02 100.469 115.602 103.6 113.831 103.6C111.367 103.6 110.639 98.9933 110.629 83.3486ZM129.495 85.6808C126.563 71.1523 123.398 64.5477 123.398 72.9581C123.398 82.6416 123.728 84.2718 125.524 83.4662C126.459 83.0466 127.845 86.7997 128.604 91.8067C129.362 96.8136 130.419 100.188 130.952 99.3046C131.485 98.4215 130.83 92.291 129.495 85.6808ZM139.225 86.5186C138.467 77.5106 137.09 64.1958 136.163 56.9319C135.237 49.6675 135.205 43.7238 136.091 43.7238C138.109 43.7238 144.616 71.5039 144.781 80.8255C144.85 84.7658 147.09 79.78 149.976 69.2604C152.766 59.09 156.391 50.7689 158.033 50.7689C160.336 50.7689 159.915 54.5887 156.189 67.4992C153.533 76.7009 150.671 88.1793 149.829 93.0066C148.459 100.856 148.667 101.276 151.793 96.9781C154.776 92.8764 155.289 92.9579 155.289 97.5341C155.289 101.301 153.104 102.897 147.946 102.897C140.823 102.897 140.562 102.406 139.225 86.5186ZM184.493 96.7214C183.905 93.3312 182.674 87.5237 181.757 83.816C179.14 73.22 184.529 80.3807 188.326 92.5422C191.036 101.257 191.063 102.885 188.565 102.885C186.917 102.885 185.088 100.111 184.499 96.7212L184.493 96.7214ZM193.865 82.9259C191.026 59.5125 192.245 54.4985 196.588 71.72C202.01 93.2413 202.887 102.885 199.405 102.885C197.307 102.885 195.484 96.3228 193.86 82.9261L193.865 82.9259ZM205.16 93.1993C206.94 81.207 212.086 67.6633 214.863 67.6633C217.732 67.6633 217.573 68.8383 212.264 86.9405C207.084 104.604 202.923 108.27 205.16 93.1993Z" fill="black"/>
<path d="M303.152 87.3983C303.152 88.7671 304.735 92.7853 306.67 96.328C310.95 104.162 314.107 104.745 312.402 97.3877C311.087 91.71 303.152 83.1407 303.152 87.3983Z" fill="black"/>
<path d="M310.438 78.8751C312.106 85.2367 313.99 93.2151 314.623 96.6053C315.857 103.21 320.161 105.176 320.161 99.1348C320.161 92.1621 314.414 72.7944 310.922 67.9968C306.616 62.0808 306.532 63.9832 310.438 78.8751Z" fill="black"/>
<path d="M320.227 62.3632C321.304 70.0573 319.177 77.813 322.236 89.561C322.279 100.903 322.962 102.76 327.07 102.708C330.895 102.66 332.835 98.5991 336.742 82.4564C339.43 71.3505 342.163 60.2823 342.816 57.8608C343.469 55.4393 342.966 53.4581 341.698 53.4581C338.065 53.4581 332.958 68.7342 330.96 85.5822C329.158 100.785 329.127 100.83 328.851 88.6808C328.579 76.6714 320.989 43.8679 319.177 46.8696C318.678 47.6963 319.15 54.6686 320.227 62.3632Z" fill="black"/>
<path d="M338.358 95.7248C337.842 95.7248 336.829 97.3097 336.106 99.2469C335.383 101.184 335.805 102.769 337.044 102.769C338.282 102.769 339.295 101.184 339.295 99.2469C339.295 97.3097 338.873 95.7248 338.358 95.7248Z" fill="black"/>
<path d="M404.154 80.6756C396.607 67.1857 395.724 71.7738 402.545 89.0325C408.978 105.312 410.908 106.756 412.829 96.7297C414.572 87.6327 410.689 65.2847 405.455 54.2903C400.948 44.8235 399.65 50.054 403.528 62.0571C404.826 66.0741 406.701 74.0573 407.694 79.7972L409.501 90.2335L404.154 80.6756Z" fill="black"/>
<path d="M413.759 49.557C415.007 57.0036 416.033 72.2097 416.04 83.3486C416.049 98.9933 416.778 103.6 419.241 103.6C421.013 103.6 422.431 100.469 422.431 96.5559C422.431 92.6814 423.298 89.5115 424.358 89.5115C425.418 89.5115 425.826 92.4172 425.265 95.9684C424.41 101.39 425.635 102.515 432.906 102.987C440.306 103.468 441.566 102.508 441.566 96.3903C441.566 92.4532 439.562 82.7244 437.113 74.7718C433.516 63.0906 433.107 58.6852 434.987 51.8513C437.84 41.4758 437.867 40.2008 435.236 40.2008C431.809 40.2008 426.674 55.895 424.726 72.3248C422.923 87.5277 422.892 87.5727 422.617 75.4234C422.322 62.447 414.691 30.7155 412.67 34.0635C412.021 35.1386 412.511 42.1106 413.759 49.557Z" fill="black"/>
<path d="M441.574 56.932C442.5 64.1958 443.878 77.5106 444.636 86.5186C445.972 102.406 446.233 102.897 453.356 102.897C458.514 102.897 460.7 101.301 460.7 97.5341C460.7 92.9579 460.187 92.8764 457.204 96.9781C454.077 101.276 453.87 100.856 455.24 93.0066C456.082 88.1793 458.944 76.7009 461.6 67.4993C465.326 54.5887 465.747 50.7689 463.443 50.7689C461.802 50.7689 458.176 59.09 455.386 69.2604C452.501 79.78 450.261 84.7659 450.192 80.8255C450.027 71.504 443.52 43.7238 441.502 43.7238C440.616 43.7238 440.648 49.6675 441.574 56.932Z" fill="black"/>
<path d="M178.529 23.5748C179.66 20.4489 190.166 0.259354 190.54 -2.23843e-06C191.165 -0.432294 181.045 21.9621 180.078 32.382C179.178 42.0672 178.442 62.9348 178.442 78.7577C178.442 109.115 177.846 110.938 173.821 92.8856L171.325 81.6911L171.13 94.0195C170.995 102.595 170.365 104.851 169.059 101.433C167.526 97.4221 167.042 97.6317 166.433 102.57C165.859 107.222 164.778 106.063 161.758 97.555C157.464 85.4559 158.384 79.8573 163.508 86.9034C166.411 90.8946 166.413 90.0298 163.531 78.6015C160.124 65.0916 162.812 60.7021 166.846 73.1883C168.151 77.2286 169.686 79.7591 170.257 78.8134C170.828 77.8676 170.332 74.1642 169.153 70.5858C163.784 54.2877 156.519 23.5743 158.033 23.5743C161.758 18.303 166.39 35.9207 168.383 48.2307L170.38 60.5591L172.86 46.4686C174.225 38.7205 176.778 28.4178 178.529 23.5748Z" fill="black"/>
<path d="M186.442 43.8297C189.364 35.21 198.479 32.2417 199.405 32.382C200.223 32.5057 201.215 35.772 199.405 43.1017C197.851 49.3982 187.808 57.4756 186.939 62.3186L185.356 71.1262L190.54 63.1997C196.656 53.8518 200.748 52.5441 196.039 61.4412C190.468 71.9677 185.884 89.6771 185.884 100.683C185.884 106.476 183.972 102.434 182.833 103.6C181.549 104.915 181.784 104.354 181.853 86.2461C181.941 63.3181 182.928 54.1977 186.442 43.8297Z" fill="black"/>
<path d="M304.544 90.4961C303.375 89.2988 302.418 89.9977 302.418 92.0493C302.418 94.1008 303.375 95.7793 304.544 95.7793C305.714 95.7793 306.67 95.0804 306.67 94.2261C306.67 93.372 305.713 91.6934 304.544 90.4961Z" fill="black"/>
<path d="M277.619 16.3026C278.75 13.1767 279.466 11.2902 279.841 11.0308C280.465 10.5985 280.135 14.6898 279.168 25.1098C278.268 34.7949 277.532 55.6625 277.532 71.4855C277.532 101.842 276.936 103.666 272.911 85.6133L270.415 74.4188L270.22 86.7472C270.085 95.3224 269.455 97.5788 268.149 94.1605C266.616 90.1499 266.132 90.3594 265.523 95.2981C264.949 99.95 263.868 98.7906 260.848 90.2827C256.554 78.1836 257.473 72.585 262.598 79.6312C265.501 83.6223 265.503 82.7575 262.621 71.3293C259.213 57.8193 261.902 53.4298 265.936 65.916C267.241 69.9564 268.776 72.4869 269.347 71.5411C269.918 70.5953 269.422 66.892 268.243 63.3135C262.874 47.0155 253.812 25.1098 257.123 16.3021C260.848 11.0308 265.48 28.6485 267.473 40.9585L269.47 53.2868L271.95 39.1964C273.315 31.4482 275.867 21.1456 277.619 16.3026Z" fill="black"/>
<path d="M285.532 36.5575C288.454 27.9377 290.746 23.5646 291.673 23.7049C292.49 23.8286 292.246 27.465 290.436 34.7947C288.882 41.0912 286.898 50.2034 286.028 55.0463L284.446 63.854L289.63 55.9275C295.746 46.5796 299.838 45.2719 295.129 54.169C289.558 64.6955 284.974 82.4048 284.974 93.4102C284.974 99.2036 283.062 95.1617 281.923 96.328C280.639 97.6427 280.873 97.0818 280.943 78.9739C281.031 56.0458 282.018 46.9254 285.532 36.5575Z" fill="black"/>
<path d="M406.418 97.0403C405.249 95.843 404.292 96.5419 404.292 98.5936C404.292 100.645 405.249 102.324 406.418 102.324C407.587 102.324 408.544 101.625 408.544 100.77C408.544 99.9162 407.587 98.2376 406.418 97.0403Z" fill="black"/>
<path d="M379.493 22.8469C380.624 19.7209 381.34 17.8344 381.715 17.5751C382.339 17.1428 382.009 21.2341 381.042 31.654C380.142 41.3392 379.406 62.2068 379.406 78.0297C379.406 108.387 378.81 110.21 374.785 92.1575L372.289 80.963L372.094 93.2914C371.959 101.867 371.329 104.123 370.022 100.705C368.489 96.6941 368.006 96.9037 367.397 101.842C366.823 106.494 365.741 105.335 362.722 96.827C358.428 84.7278 359.347 79.1293 364.472 86.1754C367.375 90.1665 367.377 89.3017 364.495 77.8735C361.087 64.3636 363.776 59.974 367.81 72.4603C369.115 76.5006 370.65 79.0311 371.221 78.0854C371.792 77.1395 371.296 73.4362 370.117 69.8577C364.748 53.5597 357.483 22.8463 358.997 22.8463C362.722 17.5751 367.353 35.1927 369.347 47.5027L371.344 59.8311L373.824 45.7406C375.189 37.9925 377.741 27.6898 379.493 22.8469Z" fill="black"/>
<path d="M387.406 43.1017C390.328 34.482 392.62 30.1089 393.547 30.2491C394.364 30.3728 394.12 34.0092 392.31 41.3389C390.756 47.6354 388.772 56.7476 387.902 61.5906L386.32 70.3982L391.504 62.4717C397.62 53.1238 401.712 51.8161 397.003 60.7132C391.432 71.2397 386.848 88.949 386.848 99.9545C386.848 105.748 384.936 101.706 383.797 102.872C382.513 104.187 382.747 103.626 382.817 85.5181C382.905 62.5901 383.892 53.4697 387.406 43.1017Z" fill="black"/>
<path d="M49.7508 82.1472C50.6671 85.8549 51.898 91.6624 52.4864 95.0526L52.4925 95.0524C53.081 98.4426 54.9105 101.216 56.5582 101.216C59.0564 101.216 59.0298 99.5878 56.319 90.8734C52.5228 78.7119 47.133 71.5512 49.7508 82.1472Z" fill="black"/>
<path d="M64.5816 70.0513C60.2381 52.8298 59.0199 57.8437 61.8583 81.2572L61.853 81.2573C63.4771 94.654 65.3004 101.216 67.3988 101.216C70.8803 101.216 70.0033 91.5726 64.5816 70.0513Z" fill="black"/>
<path d="M87.5 53.2868C84.723 53.2868 74.9333 79.5383 73.1534 91.5305C70.9168 106.602 75.0774 102.935 80.2577 85.2717C85.5668 67.1695 90.3687 53.2868 87.5 53.2868Z" fill="black"/>
<path d="M23.4526 82.1472C24.3688 85.8549 25.5997 91.6624 26.1881 95.0526L26.1943 95.0524C26.7827 98.4426 28.6122 101.216 30.2599 101.216C32.7581 101.216 32.7316 99.5878 30.0207 90.8734C26.2245 78.7119 20.8347 71.5512 23.4526 82.1472Z" fill="black"/>
<path d="M38.2834 70.0513C33.9399 52.8298 32.7217 57.8437 35.56 81.2572L35.5547 81.2573C37.1788 94.654 39.0021 101.216 41.1005 101.216C44.582 101.216 43.705 91.5726 38.2834 70.0513Z" fill="black"/>
<path d="M56.5582 65.9946C53.7812 65.9946 48.635 79.5383 46.8551 91.5305C44.6185 106.602 48.7791 102.935 53.9595 85.2717C59.2685 67.1695 59.4269 65.9946 56.5582 65.9946Z" fill="black"/>
<path d="M81.5778 89.7169C77.4208 75.2752 75.6858 75.9321 77.7077 91.1819C78.4965 97.1321 80.4855 102 82.1277 102C84.5862 102 84.4892 99.8313 81.5778 89.7169Z" fill="black"/>
<path d="M101.417 85.4545C99.8208 82.8107 96.1241 87.4102 93.6231 95.1521C91.9614 100.296 92.096 102 94.1635 102C97.1602 102 103.153 88.3304 101.417 85.4545Z" fill="black"/>
<path d="M214.571 90.4858C210.414 76.0441 208.679 76.7011 210.701 91.9508C211.49 97.9011 213.479 102.769 215.121 102.769C217.579 102.769 217.482 100.6 214.571 90.4858Z" fill="black"/>
<path d="M234.41 86.2235C232.814 83.5797 229.117 88.1792 226.616 95.921C224.955 101.064 225.089 102.769 227.157 102.769C230.153 102.769 236.146 89.0993 234.41 86.2235Z" fill="black"/>
</g>
</svg>
